<svg version="1" xmlns="http://www.w3.org/2000/svg" width="1237.333" height="1237.333" viewBox="0 0 928.000000 928.000000"><path d="M412.5 230.1c-2.2.5-11.2 3.2-20 6s-24.5 7.8-35 11.1c-10.4 3.2-23 7.2-28 8.8-4.9 1.6-35.8 11.2-68.5 21.5-75.2 23.5-80.4 25.2-86.4 28.3-6.5 3.2-15.7 12.4-19 19-5.8 11.5-5.6 5.8-5.6 139.3 0 78.2.4 124.6 1 127.9 2.1 11.1 9.9 22.7 19.2 28.6 2 1.3 56.5 23.5 121.1 49.3 83.7 33.5 119.3 47.3 124 48.1 23.1 3.7 45.3-10.8 51.3-33.5 1.1-4.1 1.4-42 1.4-210 0-221.7.3-210.2-5.1-220.8-3-5.7-12.9-15.8-18.7-19-9.4-5.1-21.8-6.9-31.7-4.6zM397.1 302c4.2 3.1 7.5 10.6 9.1 21 1.9 12.2 1.9 282.9 0 294-1.8 10.9-4.2 16.8-8.1 20.2-3.3 2.9-3.7 3-11 2.6-9.7-.6-28.3-6.9-55.6-18.8-11-4.8-38-16.6-60-26.2-22-9.7-41.1-17.9-42.5-18.3-4.9-1.5-13.5-6.4-16.2-9.2-6.1-6.3-5.8-2.2-5.8-96 0-47.2.5-90.2 1-95.6 1.1-11.2 3.5-17.7 7.6-20.3 1.5-1 15.2-6 30.3-11 15.2-5.1 43.6-14.7 63.1-21.4 19.5-6.7 36.6-12.6 38-13 1.4-.4 7-2.4 12.5-4.5 19.1-7 31-8.1 37.6-3.5zM529.7 240c-9.2 2.3-17.8 9.6-21.9 18.5l-2.3 5-.6 98c-.4 53.9-.7 147.8-.8 208.6-.1 124.3-.6 115.8 7.5 124.8 15.3 17 41.1 13.1 50.7-7.7 2.2-4.7 2.2-5.2 2.8-94.7.4-49.5.7-143.6.8-209.1.1-133.8.7-124.2-7.5-133.3-7.5-8.3-19.2-12.4-28.7-10.1zM618.2 262c-7.1 3.6-11.5 8.2-15.1 16l-2.6 5.5-.3 179c-.2 129.5 0 180.7.8 185 3.2 17.1 18.5 28 35.5 25.3 3.1-.5 7.4-1.7 9.4-2.7 5.2-2.7 11.4-9.8 13.7-15.7 1.8-4.8 1.9-10.3 1.9-188.4V282.5l-2.3-4.6c-5.8-11.8-16.4-18.9-28.2-18.9-5.4 0-7.8.6-12.8 3zM716.7 297.5c-7.9 3-15.1 9.8-18.7 17.6-1.9 4.3-2 7.2-2 155 0 172.3-.9 156.2 9.4 166.5 4.8 4.8 7.3 6.4 12 7.8 15.1 4.7 30.4-2 37-16.3l2.1-4.6v-304l-2.8-5.7c-3.1-6.2-8.4-11.6-14.9-14.9-5.5-2.8-16.6-3.5-22.1-1.4z"/></svg>